<svg width="3011" height="2659" viewBox="0 0 3011 2659" fill="none" xmlns="http://www.w3.org/2000/svg">
<path d="M1202.64 635.894L758.641 506.853L290.647 1639.63L1505.39 2041.12L2720.11 1639.63L2252.11 506.853L1808.11 635.894L1521.56 706.2L1202.64 635.894Z" fill="#092672"/>
<path d="M1508.61 1971.97L1619.08 1896.25C1835.29 1750.21 2082.72 1658.43 2341.93 1628.69L2511.64 1609.17L2152.2 535.947L1808.2 635.894L1521.61 706.187L1202.67 635.894L858.767 535.947L499.517 1609.17L669.627 1628.69C928.84 1658.43 1178.69 1750.21 1394.91 1896.25L1508.61 1971.97V1972V1971.99V1972V1971.97" fill="#EFB732"/>
<path d="M1505.39 2041.12L801.793 2211.68L1023.33 1881.24L1505.39 2041.12Z" fill="#008FC4"/>
<path d="M1505.37 2041.12L2208.96 2211.68L1987.43 1881.24L1505.37 2041.12Z" fill="#008FC4"/>
<path d="M1023.33 1881.24L1001.05 1914.47C1097.4 1949.85 1258.83 1968.65 1174.16 2067.41C1150.31 2096.77 1122.26 2120.69 1091.68 2141.41L1505.39 2041.12L1023.33 1881.24" fill="#CB9413"/>
<path d="M1174.16 2067.41C1258.83 1968.65 1097.4 1949.85 1001.05 1914.47L801.793 2211.68L1091.68 2141.41C1122.26 2120.69 1150.31 2096.77 1174.16 2067.41Z" fill="#EFB732"/>
<path d="M1878 1978.43C1821.37 2010.79 1886.09 2067.41 1926.56 2083.6C2023.6 2107.87 2106.11 2158.31 2189.77 2207.03L2208.96 2211.68L2036.32 1954.17C1983.55 1950.56 1930.77 1943.24 1878 1978.43" fill="#EFB732"/>
<path d="M1926.56 2083.6C1886.09 2067.41 1821.37 2010.79 1878 1978.43C1930.77 1943.24 1983.55 1950.56 2036.32 1954.17L1987.43 1881.24L1505.37 2041.12L2189.77 2207.03C2106.11 2158.31 2023.6 2107.87 1926.56 2083.6Z" fill="#CB9413"/>
<path d="M2042.71 442.84L1988.29 447.067C1825.57 459.707 1668.05 510.147 1528.27 594.387L1505.37 608.173L1482.49 594.387C1342.69 510.147 1185.17 459.707 1022.45 447.067L968.037 442.84L602.564 1534.68L755.251 1552.2C987.908 1578.89 1210.7 1661.27 1404.76 1792.35L1505.36 1860.31V1860.33L1505.37 1860.32L1505.4 1860.33V1860.31L1605.99 1792.35C1800.05 1661.27 2022.85 1578.89 2255.51 1552.2L2408.19 1534.68L2042.71 442.84" fill="#E8DBC0"/>
<path d="M2042.71 442.84L1988.29 447.067C1825.57 459.707 1668.05 510.147 1528.27 594.387L1505.37 608.173L1482.49 594.387C1342.69 510.147 1185.17 459.707 1022.45 447.067L968.037 442.84L602.564 1534.68L755.251 1552.2C987.908 1578.89 1210.7 1661.27 1404.76 1792.35L1505.36 1860.31V1860.33L1505.37 1860.32L1505.4 1860.33V1860.31L1605.99 1792.35C1800.05 1661.27 2022.85 1578.89 2255.51 1552.2L2408.19 1534.68L2042.71 442.84" fill="white"/>
<path d="M2408.19 1534.68L2042.71 442.84L1988.29 447.067C1965.36 448.853 1942.53 451.467 1919.83 454.747C1930.29 453.24 2054.4 820.694 2063.53 856.654C2098.15 993.12 2086.05 1123.51 1959.29 1204.15C1885.69 1250.97 1899.77 1265.2 1944.17 1328.03C1995.11 1400.12 1984.83 1477.95 1934.64 1549.64C1896.32 1599.76 1854.75 1641.2 1810.37 1677.27C1950.72 1612.39 2100.91 1569.93 2255.51 1552.2L2408.19 1534.68Z" fill="#E2E0DD"/>
<path d="M1505.36 1858.97C1503.12 1858.97 1501.32 1857.16 1501.32 1854.93V612.093C1501.32 609.867 1503.12 608.053 1505.36 608.053C1507.59 608.053 1509.4 609.867 1509.4 612.093V1854.93C1509.4 1857.16 1507.59 1858.97 1505.36 1858.97Z" fill="#DCA97D"/>
</svg>
